<?xml version="1.0" encoding="utf-8"?>
<!-- Generator: Adobe Illustrator 21.1.0, SVG Export Plug-In . SVG Version: 6.00 Build 0)  -->
<svg version="1.1" id="Слой_1" xmlns="http://www.w3.org/2000/svg" xmlns:xlink="http://www.w3.org/1999/xlink" x="0px" y="0px"
	 viewBox="0 0 450 450" style="enable-background:new 0 0 450 450;" xml:space="preserve">
<style type="text/css">
	.st0{fill:#00D8FF;}
	.st1{fill:#00D8FF;fill-opacity:0;stroke:#82CF17;stroke-width:24;stroke-miterlimit:10;}
	.st2{fill:#00D8FF;fill-opacity:0;stroke:#FF0080;stroke-width:24;stroke-miterlimit:10;}
	.st3{fill:#00D8FF;fill-opacity:0;stroke:#FF9500;stroke-width:24;stroke-miterlimit:10;}
</style>
<g id="Layer_1">
	<path class="st0" d="M262.1,224.8c0,20.5-16.6,37.1-37.1,37.1s-37.1-16.6-37.1-37.1s16.6-37.1,37.1-37.1S262.1,204.3,262.1,224.8z"
		/>
	<path class="st1" d="M225,149.3c49.8,0,96.1,7.1,131,19.2c42,14.5,67.9,36.4,67.9,56.3c0,20.7-27.4,44-72.5,59
		c-34.1,11.3-79,17.2-126.3,17.2c-48.5,0-94.4-5.5-128.9-17.3c-43.7-14.9-70-38.5-70-58.8c0-19.7,24.7-41.5,66.1-55.9
		C127.3,156.6,174.7,149.3,225,149.3z"/>
	<path class="st2" d="M159.3,187.3c24.9-43.1,54.2-79.7,82-103.9c33.5-29.2,65.4-40.6,82.7-30.7c17.9,10.3,24.4,45.7,14.8,92.3
		c-7.3,35.2-24.6,77.1-48.2,118c-24.2,42-51.9,79-79.4,103c-34.7,30.4-68.3,41.4-85.9,31.2c-17.1-9.8-23.6-42.1-15.4-85.2
		C116.9,275.6,134.2,230.8,159.3,187.3z"/>
	<path class="st3" d="M159.4,263.1c-25-43.1-41.9-86.7-49-122.9c-8.5-43.6-2.5-77,14.7-86.9c17.9-10.4,51.8,1.7,87.4,33.2
		c26.9,23.9,54.5,59.8,78.2,100.7c24.3,42,42.5,84.5,49.6,120.2c9,45.3,1.7,79.8-15.9,90c-17,9.9-48.2-0.6-81.5-29.2
		C214.7,344,184.6,306.6,159.4,263.1z"/>
</g>
</svg>
